<svg width="13" height="13" viewBox="0 0 13 13" fill="none" xmlns="http://www.w3.org/2000/svg">
<rect x="0.5" y="0.5" width="12" height="12" rx="6" stroke="#8A8A8A"/>
<path d="M6.97602 8.5696L7.52202 8.8582V8.9674H5.41602V8.8582L5.96202 8.5696V5.6212L5.41602 5.4106V5.3092L6.97602 4.8412V8.5696ZM6.44562 4.4356C6.27402 4.4356 6.12842 4.3784 6.00882 4.264C5.88922 4.1444 5.82942 4.0014 5.82942 3.835C5.82942 3.6738 5.88922 3.536 6.00882 3.4216C6.12842 3.3072 6.27402 3.25 6.44562 3.25C6.62242 3.25 6.77062 3.3072 6.89022 3.4216C7.01502 3.536 7.07742 3.6738 7.07742 3.835C7.07742 4.0014 7.01502 4.1444 6.89022 4.264C6.77062 4.3784 6.62242 4.4356 6.44562 4.4356Z" fill="#8A8A8A"/>
</svg>
